<?xml version="1.0" encoding="utf-8"?>
<!-- Generator: Adobe Illustrator 27.5.0, SVG Export Plug-In . SVG Version: 6.00 Build 0)  -->
<svg version="1.1" xmlns="http://www.w3.org/2000/svg" xmlns:xlink="http://www.w3.org/1999/xlink" x="0px" y="0px"
	 viewBox="0 0 500 500" style="enable-background:new 0 0 500 500;" xml:space="preserve">
<g id="Background_Complete">
	<g>
		<rect x="416.779" y="398.494" style="fill:#EBEBEB;" width="33.122" height="0.25"/>
		<rect x="322.527" y="401.208" style="fill:#EBEBEB;" width="8.693" height="0.25"/>
		<rect x="396.586" y="389.208" style="fill:#EBEBEB;" width="19.192" height="0.25"/>
		<rect x="52.459" y="390.888" style="fill:#EBEBEB;" width="43.193" height="0.25"/>
		<rect x="104.556" y="390.888" style="fill:#EBEBEB;" width="6.333" height="0.25"/>
		<rect x="131.471" y="395.111" style="fill:#EBEBEB;" width="93.676" height="0.25"/>
		<path style="fill:#EBEBEB;" d="M237.014,337.8H43.915c-3.147,0-5.708-2.561-5.708-5.708V60.66c0-3.147,2.561-5.708,5.708-5.708
			h193.099c3.146,0,5.707,2.561,5.707,5.708v271.432C242.721,335.239,240.16,337.8,237.014,337.8z M43.915,55.203
			c-3.01,0-5.458,2.448-5.458,5.458v271.432c0,3.01,2.448,5.458,5.458,5.458h193.099c3.009,0,5.457-2.448,5.457-5.458V60.66
			c0-3.009-2.448-5.458-5.457-5.458H43.915z"/>
		<path style="fill:#EBEBEB;" d="M453.31,337.8H260.212c-3.147,0-5.707-2.561-5.707-5.708V60.66c0-3.147,2.561-5.708,5.707-5.708
			H453.31c3.148,0,5.708,2.561,5.708,5.708v271.432C459.019,335.239,456.458,337.8,453.31,337.8z M260.212,55.203
			c-3.009,0-5.457,2.448-5.457,5.458v271.432c0,3.01,2.448,5.458,5.457,5.458H453.31c3.01,0,5.458-2.448,5.458-5.458V60.66
			c0-3.009-2.448-5.458-5.458-5.458H260.212z"/>
		<rect y="382.398" style="fill:#EBEBEB;" width="500" height="0.25"/>
	</g>
	<g>
		<path style="fill:#E0E0E0;" d="M85.856,180.765V161.29h-1.5v19.475c-0.965,0.317-1.666,1.215-1.666,2.286v6.167
			c0,1.335,1.082,2.417,2.416,2.417l0,0c1.335,0,2.417-1.082,2.417-2.417v-6.167C87.523,181.98,86.822,181.082,85.856,180.765z"/>
		<rect x="90.184" y="161.29" style="fill:#EBEBEB;" width="2.988" height="219.258"/>
		<path style="fill:#E0E0E0;" d="M111.178,381.449h-39l0,0c0-2.015,1.633-3.648,3.648-3.648h31.703
			C109.545,377.801,111.178,379.434,111.178,381.449L111.178,381.449z"/>
		<polygon style="fill:#E0E0E0;" points="90.184,176.796 93.172,175.813 93.172,161.29 90.184,161.29 		"/>
		<polygon style="fill:#F0F0F0;" points="109.578,115.801 73.778,115.801 62.778,163.301 120.578,163.301 		"/>
	</g>
	<g>
		<g>
			<g>
				<path style="fill:#EBEBEB;" d="M266.658,129.186v-8.528c-1.051,0-1.053-1.633,0-1.633c3.25,0,6.503-0.022,9.755-0.041v11.836
					c-3.252,0-6.504,0-9.755,0C265.607,130.819,265.606,129.186,266.658,129.186z"/>
				<rect x="266.658" y="120.658" style="fill:#F5F5F5;" width="7.578" height="8.516"/>
				<path style="fill:#FAFAFA;" d="M272.646,130.003h26.271c1.806,0,3.27-2.275,3.27-5.081s-1.464-5.081-3.27-5.081h-26.271V130.003
					z"/>
				<g>
					<path style="fill:#E6E6E6;" d="M272.646,119.025c8.601,0,17.216-0.155,25.815,0c5.891,0.106,6.207,11.398,0.43,11.794
						c-4.028,0.276-8.171,0-12.206,0c-4.68,0-9.359,0-14.039,0c-1.051,0-1.052-1.633,0-1.633c8.152,0,16.304,0,24.456,0
						c1.887,0,3.236-0.021,3.965-2.247c0.631-1.926,0.432-5.856-2.15-6.281c-0.278-0.046-0.606,0-0.885,0c-4.445,0-8.889,0-13.334,0
						c-4.018,0-8.035,0-12.052,0C271.595,120.658,271.594,119.025,272.646,119.025L272.646,119.025z"/>
				</g>
			</g>
			<g>
				<path style="fill:#EBEBEB;" d="M266.57,117.67v-7.579c-0.934,0-0.935-1.451,0-1.451c2.889,0,5.779-0.02,8.669-0.037v10.518
					c-2.89,0-5.78,0-8.669,0C265.637,119.121,265.635,117.67,266.57,117.67z"/>
				<rect x="266.57" y="110.091" style="fill:#F5F5F5;" width="6.734" height="7.568"/>
				<path style="fill:#FAFAFA;" d="M271.892,118.396h23.347c1.605,0,2.906-2.021,2.906-4.515c0-2.494-1.301-4.515-2.906-4.515
					h-23.347V118.396z"/>
				<g>
					<path style="fill:#E6E6E6;" d="M271.892,108.64c7.644,0,15.3-0.138,22.942,0c5.235,0.095,5.517,10.129,0.382,10.481
						c-3.579,0.246-7.261,0-10.847,0c-4.159,0-8.317,0-12.476,0c-0.934,0-0.935-1.451,0-1.451c7.245,0,14.489,0,21.734,0
						c1.677,0,2.876-0.019,3.524-1.997c0.561-1.711,0.384-5.204-1.911-5.582c-0.247-0.041-0.538,0-0.786,0c-3.95,0-7.9,0-11.849,0
						c-3.57,0-7.141,0-10.711,0C270.958,110.091,270.956,108.64,271.892,108.64L271.892,108.64z"/>
				</g>
			</g>
			<g>
				<path style="fill:#EBEBEB;" d="M266.658,140.777v-8.528c-1.051,0-1.053-1.633,0-1.633c3.25,0,6.503-0.022,9.755-0.041v11.836
					c-3.252,0-6.504,0-9.755,0C265.607,142.41,265.606,140.777,266.658,140.777z"/>
				<rect x="266.658" y="132.249" style="fill:#F5F5F5;" width="7.578" height="8.516"/>
				<path style="fill:#FAFAFA;" d="M272.646,141.594h26.271c1.806,0,3.27-2.275,3.27-5.081s-1.464-5.08-3.27-5.08h-26.271V141.594z"
					/>
				<g>
					<path style="fill:#E6E6E6;" d="M272.646,130.616c8.601,0,17.216-0.155,25.815,0c5.891,0.106,6.207,11.398,0.43,11.794
						c-4.028,0.276-8.171,0-12.206,0c-4.68,0-9.359,0-14.039,0c-1.051,0-1.052-1.633,0-1.633c8.152,0,16.304,0,24.456,0
						c1.887,0,3.236-0.021,3.965-2.247c0.631-1.926,0.432-5.856-2.15-6.281c-0.278-0.046-0.606,0-0.885,0c-4.445,0-8.889,0-13.334,0
						c-4.018,0-8.035,0-12.052,0C271.595,132.249,271.594,130.616,272.646,130.616L272.646,130.616z"/>
				</g>
			</g>
		</g>
		<g>
			<polygon style="fill:#F5F5F5;" points="331.201,141.089 333.034,141.089 386.1,141.089 386.1,148.134 333.034,148.134 
				331.201,148.134 154.247,148.134 154.247,141.089 			"/>
			<g>
				<polygon style="fill:#E0E0E0;" points="372.98,165.263 372.98,148.134 381.544,148.134 				"/>
				<polygon style="fill:#F5F5F5;" points="377.262,165.263 385.826,148.134 381.544,148.134 372.98,165.263 				"/>
			</g>
			<g>
				<polygon style="fill:#E0E0E0;" points="167.094,165.263 167.094,148.134 158.529,148.134 				"/>
				<polygon style="fill:#F5F5F5;" points="162.811,165.263 154.247,148.134 158.529,148.134 167.094,165.263 				"/>
			</g>
		</g>
		<g>
			<path style="fill:#E6E6E6;" d="M317.403,123.933c0,10.29,8.342,18.632,18.632,18.632c10.29,0,18.632-8.341,18.632-18.632v-0.649
				c0-10.29-8.342-18.632-18.632-18.632c-10.29,0-18.632,8.342-18.632,18.632V123.933z"/>
			<path style="fill:#F0F0F0;" d="M317.403,121.254c0,10.29,8.342,18.632,18.632,18.632c10.29,0,18.632-8.342,18.632-18.632v-0.649
				c0-10.29-8.342-18.632-18.632-18.632c-10.29,0-18.632,8.342-18.632,18.632V121.254z"/>
			<path style="fill:#FAFAFA;" d="M321.478,120.605c0,8.039,6.517,14.556,14.556,14.556c8.039,0,14.556-6.517,14.556-14.556
				s-6.517-14.556-14.556-14.556C327.995,106.049,321.478,112.566,321.478,120.605z"/>
			<path style="fill:#E6E6E6;" d="M336.034,108.348c-7.651,0-13.911,5.907-14.498,13.407c-0.03-0.38-0.058-0.761-0.058-1.149
				c0-8.039,6.517-14.556,14.556-14.556c8.039,0,14.556,6.517,14.556,14.556c0,0.388-0.028,0.769-0.058,1.149
				C349.945,114.254,343.685,108.348,336.034,108.348z"/>
			<path style="fill:#E0E0E0;" d="M326.841,120.598c0.436,0,5.136,0,7.653,0c0-2.52,0-7.227,0-7.653c0-0.851,0.69-1.54,1.54-1.54
				c0.85,0,1.54,0.69,1.54,1.54c0,0.576,0,8.617,0,9.193c0,0.85-0.69,1.54-1.54,1.54l0,0l0,0c-0.564,0-8.63,0-9.193,0
				c-0.85,0-1.54-0.69-1.54-1.54C325.301,121.287,325.991,120.598,326.841,120.598z"/>
			<path style="fill:#F5F5F5;" d="M326.841,122.145c-0.85,0-1.54-0.69-1.54-1.54c0-0.851,0.689-1.54,1.54-1.54
				c0.576,0,8.617,0,9.194,0c0.85,0,1.54,0.689,1.54,1.54c0,0.85-0.69,1.54-1.54,1.54
				C335.47,122.145,327.405,122.145,326.841,122.145z"/>
			<path style="fill:#EBEBEB;" d="M334.494,111.412c0-0.851,0.69-1.54,1.54-1.54c0.85,0,1.54,0.69,1.54,1.54
				c0,0.576,0,8.617,0,9.193c0,0.85-0.69,1.54-1.54,1.54c-0.851,0-1.54-0.689-1.54-1.54
				C334.494,120.042,334.494,111.976,334.494,111.412z"/>
		</g>
		<g>
			<g>
				
					<rect x="218.959" y="94.686" transform="matrix(-1 -1.224647e-16 1.224647e-16 -1 449.1463 236.0174)" style="fill:#E0E0E0;" width="11.229" height="46.645"/>
				<circle style="fill:#FAFAFA;" cx="224.573" cy="131.372" r="3.455"/>
				
					<rect x="221.118" y="99.197" transform="matrix(-1 -1.224647e-16 1.224647e-16 -1 449.1462 220.8514)" style="opacity:0.6;fill:#F0F0F0;" width="6.91" height="22.458"/>
				
					<rect x="221.118" y="99.197" transform="matrix(-1 -1.224647e-16 1.224647e-16 -1 449.1462 201.5607)" style="opacity:0.6;fill:#FAFAFA;" width="6.91" height="3.167"/>
			</g>
			<g>
				
					<rect x="210.532" y="103.657" transform="matrix(-1 -1.224647e-16 1.224647e-16 -1 430.1336 244.9876)" style="fill:#E6E6E6;" width="9.069" height="37.674"/>
				<path style="fill:#FAFAFA;" d="M212.276,133.287c0,1.541,1.249,2.791,2.79,2.791s2.791-1.249,2.791-2.791
					s-1.249-2.791-2.791-2.791S212.276,131.746,212.276,133.287z"/>
				
					<rect x="212.276" y="107.3" transform="matrix(-1 -1.224647e-16 1.224647e-16 -1 430.1337 232.7382)" style="opacity:0.6;fill:#F0F0F0;" width="5.581" height="18.139"/>
				
					<rect x="212.276" y="107.3" transform="matrix(-1 -1.224647e-16 1.224647e-16 -1 430.1337 217.1573)" style="opacity:0.6;fill:#FAFAFA;" width="5.581" height="2.558"/>
			</g>
			<g>
				
					<rect x="237.441" y="94.686" transform="matrix(-1 -1.224647e-16 1.224647e-16 -1 486.1099 236.0174)" style="fill:#EBEBEB;" width="11.229" height="46.645"/>
				<circle style="fill:#E0E0E0;" cx="243.055" cy="131.372" r="3.455"/>
				
					<rect x="239.6" y="99.197" transform="matrix(-1 -1.224647e-16 1.224647e-16 -1 486.1098 220.8514)" style="opacity:0.6;fill:#FAFAFA;" width="6.91" height="22.458"/>
				
					<rect x="239.6" y="99.197" transform="matrix(-1 -1.224647e-16 1.224647e-16 -1 486.1098 201.5607)" style="opacity:0.6;fill:#FAFAFA;" width="6.91" height="3.167"/>
			</g>
			<g>
				
					<rect x="200.105" y="94.686" transform="matrix(-1 -1.224647e-16 1.224647e-16 -1 411.4396 236.0174)" style="fill:#E0E0E0;" width="11.229" height="46.645"/>
				<circle style="fill:#FAFAFA;" cx="205.72" cy="131.372" r="3.455"/>
				
					<rect x="202.265" y="99.197" transform="matrix(-1 -1.224647e-16 1.224647e-16 -1 411.4396 220.8514)" style="opacity:0.6;fill:#F0F0F0;" width="6.91" height="22.458"/>
				
					<rect x="202.265" y="99.197" transform="matrix(-1 -1.224647e-16 1.224647e-16 -1 411.4396 201.5607)" style="opacity:0.6;fill:#FAFAFA;" width="6.91" height="3.167"/>
			</g>
			<g>
				
					<rect x="186.49" y="94.686" transform="matrix(-0.9945 -0.1045 0.1045 -0.9945 370.8219 255.451)" style="fill:#EBEBEB;" width="11.229" height="46.645"/>
				<path style="fill:#E0E0E0;" d="M187.272,130.937c-0.2,1.898,1.177,3.598,3.075,3.797c1.898,0.2,3.598-1.177,3.797-3.075
					c0.199-1.898-1.177-3.598-3.075-3.797C189.171,127.663,187.471,129.04,187.272,130.937z"/>
				
					<rect x="189.442" y="99.238" transform="matrix(-0.9945 -0.1045 0.1045 -0.9945 373.1909 240.4926)" style="opacity:0.6;fill:#F5F5F5;" width="6.91" height="22.457"/>
				
					<rect x="190.451" y="99.291" transform="matrix(-0.9945 -0.1045 0.1045 -0.9945 376.2045 221.4656)" style="opacity:0.6;fill:#FAFAFA;" width="6.91" height="3.167"/>
			</g>
			<g>
				
					<rect x="229.385" y="103.657" transform="matrix(-1 -1.224647e-16 1.224647e-16 -1 467.8402 244.9876)" style="fill:#E6E6E6;" width="9.069" height="37.674"/>
				<path style="fill:#FAFAFA;" d="M231.13,133.287c0,1.541,1.249,2.791,2.791,2.791c1.541,0,2.791-1.249,2.791-2.791
					s-1.249-2.791-2.791-2.791C232.379,130.496,231.13,131.746,231.13,133.287z"/>
				
					<rect x="231.13" y="107.3" transform="matrix(-1 -1.224647e-16 1.224647e-16 -1 467.8403 232.7382)" style="opacity:0.6;fill:#F0F0F0;" width="5.581" height="18.139"/>
				
					<rect x="231.13" y="107.3" transform="matrix(-1 -1.224647e-16 1.224647e-16 -1 467.8403 217.1573)" style="opacity:0.6;fill:#FAFAFA;" width="5.581" height="2.558"/>
			</g>
		</g>
	</g>
</g>
<g id="Background_Simple" style="display:none;">
	<g style="display:inline;">
		<path style="fill:#407BFF;" d="M250.593,175.984c-18.842-6.764-25.827-24.811-56.05-48.45
			c-35.047-27.412-90.111-15.469-117.167,29.925c-33.26,55.804-10.529,149.913,59.85,188.246
			c152.14,82.867,270.028,1.853,291.861-57.931c20.512-56.168-16.855-118.59-71.777-117.49
			C304.953,171.333,276.686,185.351,250.593,175.984z"/>
		<path style="opacity:0.9;fill:#FFFFFF;" d="M250.593,175.984c-18.842-6.764-25.827-24.811-56.05-48.45
			c-35.047-27.412-90.111-15.469-117.167,29.925c-33.26,55.804-10.529,149.913,59.85,188.246
			c152.14,82.867,270.028,1.853,291.861-57.931c20.512-56.168-16.855-118.59-71.777-117.49
			C304.953,171.333,276.686,185.351,250.593,175.984z"/>
	</g>
</g>
<g id="Shadow">
	<ellipse id="_x3C_Path_x3E__1_" style="fill:#F5F5F5;" cx="245.178" cy="412.391" rx="193.889" ry="11.323"/>
</g>
<g id="Screen">
	<g>
		<polygon style="fill:#407BFF;" points="249.427,274.804 230.687,274.804 239.687,246.307 258.427,246.307 		"/>
		<polygon style="opacity:0.2;" points="237.06,254.627 255.8,254.627 258.427,246.307 239.687,246.307 		"/>
		<g>
			<rect x="228.398" y="272.992" style="fill:#407BFF;" width="35.864" height="4.333"/>
			<rect x="228.398" y="272.992" style="opacity:0.5;fill:#FFFFFF;" width="35.864" height="4.333"/>
			<rect x="228.398" y="272.992" style="opacity:0.6;fill:#FFFFFF;" width="17.932" height="4.333"/>
		</g>
		<g>
			<polygon style="fill:#407BFF;" points="403.213,240.117 396.682,165.477 294.468,174.489 191.47,174.489 87.678,165.477 
				85.678,167.477 92.208,242.117 195.997,251.129 195.997,251.129 299,251.129 299,251.129 401.213,242.117 			"/>
			<polygon style="opacity:0.2;fill:#FFFFFF;" points="403.213,240.117 396.682,165.477 294.468,174.489 191.47,174.489 
				87.678,165.477 94.208,240.117 197.997,249.129 197.997,249.129 301,249.129 301,249.129 			"/>
		</g>
		
			<rect x="300.523" y="172.852" transform="matrix(0.9962 -0.0872 0.0872 0.9962 -16.7402 31.1923)" style="opacity:0.8;fill:#FFFFFF;" width="96.634" height="68.902"/>
		<g>
			<g>
				<g>
					<path style="opacity:0.5;fill:#263238;" d="M315.77,184.138c-0.585,0.051-1.101-0.385-1.153-0.974
						c-0.052-0.59,0.381-1.109,0.966-1.161l24.21-2.134c0.585-0.052,1.101,0.385,1.153,0.974c0.052,0.59-0.381,1.11-0.966,1.161
						L315.77,184.138z"/>
				</g>
				<g style="opacity:0.5;">
					<path style="opacity:0.5;fill:#FFFFFF;" d="M315.77,184.138c-0.585,0.051-1.101-0.385-1.153-0.974
						c-0.052-0.59,0.381-1.109,0.966-1.161l24.21-2.134c0.585-0.052,1.101,0.385,1.153,0.974c0.052,0.59-0.381,1.11-0.966,1.161
						L315.77,184.138z"/>
				</g>
			</g>
			<g>
				<g>
					<path style="opacity:0.5;fill:#263238;" d="M355.155,180.666c-0.585,0.052-1.101-0.385-1.153-0.974
						c-0.052-0.59,0.381-1.11,0.966-1.161l24.21-2.134c0.585-0.052,1.101,0.385,1.153,0.974c0.052,0.59-0.381,1.11-0.966,1.161
						L355.155,180.666z"/>
				</g>
				<g style="opacity:0.5;">
					<path style="opacity:0.5;fill:#FFFFFF;" d="M355.155,180.666c-0.585,0.052-1.101-0.385-1.153-0.974
						c-0.052-0.59,0.381-1.11,0.966-1.161l24.21-2.134c0.585-0.052,1.101,0.385,1.153,0.974c0.052,0.59-0.381,1.11-0.966,1.161
						L355.155,180.666z"/>
				</g>
			</g>
			<g>
				<path style="fill:#407BFF;" d="M341.474,197.16c0.598,6.83-4.412,12.851-11.19,13.449c-6.778,0.598-12.756-4.455-13.354-11.285
					c-0.598-6.83,4.413-12.851,11.19-13.449C334.897,185.278,340.876,190.33,341.474,197.16z"/>
				<g style="opacity:0.9;">
					<path style="fill:#FFFFFF;" d="M323.866,204.658l-1.399,0.123c-0.361,0.032-0.68-0.238-0.712-0.602l-0.579-6.616
						c-0.032-0.364,0.235-0.685,0.597-0.717l1.399-0.123c0.361-0.032,0.68,0.238,0.712,0.602l0.579,6.616
						C324.495,204.305,324.228,204.626,323.866,204.658z"/>
					<path style="fill:#FFFFFF;" d="M325.698,196.233c0.901-0.896,3.159-3.412,3.148-6.124c-0.005-1.331,1.83-1.895,2.497-0.745
						c0.5,0.861,0.618,2.514-0.284,5.598l3.457-0.305c0.924-0.081,1.808,0.397,2.251,1.218l0,0c0.259,0.479,0.343,1.035,0.24,1.57
						l-1.01,5.222c-0.225,1.162-1.274,1.973-2.447,1.891l-6.613-0.466c-0.548-0.039-0.987-0.473-1.035-1.025l-0.52-5.945
						C325.352,196.791,325.464,196.466,325.698,196.233z"/>
				</g>
			</g>
			<g>
				<path style="opacity:0.9;fill:#FFFFFF;" d="M380.859,193.688c-0.598-6.83-6.576-11.882-13.354-11.285
					c-6.778,0.598-11.788,6.619-11.19,13.449c0.598,6.83,6.576,11.882,13.354,11.285
					C376.447,206.539,381.457,200.518,380.859,193.688z"/>
				<g>
					<path style="fill:#407BFF;" d="M362.22,189.386l-1.399,0.123c-0.361,0.032-0.629,0.353-0.597,0.717l0.579,6.616
						c0.032,0.364,0.351,0.634,0.712,0.602l1.399-0.123c0.362-0.032,0.629-0.353,0.597-0.717l-0.579-6.616
						C362.9,189.624,362.581,189.355,362.22,189.386z"/>
					<path style="fill:#407BFF;" d="M365.487,197.361c1.043,0.725,3.703,2.807,4.163,5.479c0.226,1.311,2.131,1.545,2.588,0.297
						c0.342-0.936,0.172-2.584-1.251-5.462l3.457-0.305c0.924-0.082,1.711-0.707,2.004-1.593l0,0
						c0.172-0.517,0.159-1.079-0.036-1.588l-1.901-4.965c-0.423-1.105-1.597-1.72-2.738-1.433l-6.431,1.616
						c-0.533,0.134-0.89,0.639-0.842,1.19l0.52,5.945C365.048,196.872,365.215,197.173,365.487,197.361z"/>
				</g>
			</g>
			<g>
				
					<rect x="319.075" y="229.721" transform="matrix(0.9961 -0.0878 0.0878 0.9961 -19.2991 29.2463)" style="fill:#407BFF;" width="7.33" height="8.479"/>
				
					<rect x="326.457" y="230.923" transform="matrix(0.9961 -0.0878 0.0878 0.9961 -19.2977 29.9004)" style="opacity:0.9;fill:#FFFFFF;" width="7.33" height="6.63"/>
				
					<rect x="340.685" y="221.038" transform="matrix(0.9961 -0.0878 0.0878 0.9961 -18.7501 31.1236)" style="opacity:0.9;fill:#FFFFFF;" width="7.33" height="15.244"/>
				
					<rect x="355.209" y="217.939" transform="matrix(0.9961 -0.0878 0.0878 0.9961 -18.5016 32.3906)" style="opacity:0.9;fill:#FFFFFF;" width="7.33" height="17.058"/>
				
					<rect x="369.978" y="220.443" transform="matrix(0.9961 -0.0878 0.0878 0.9961 -18.5002 33.6952)" style="opacity:0.9;fill:#FFFFFF;" width="7.33" height="13.26"/>
				
					<rect x="333.443" y="223.049" transform="matrix(0.9961 -0.0878 0.0878 0.9961 -18.8945 30.4927)" style="fill:#407BFF;" width="7.33" height="13.874"/>
				
					<rect x="347.828" y="216.764" transform="matrix(0.9961 -0.0878 0.0878 0.9961 -18.5095 31.7464)" style="fill:#407BFF;" width="7.33" height="18.881"/>
				
					<rect x="362.59" y="219.107" transform="matrix(0.9961 -0.0878 0.0878 0.9961 -18.4959 33.0398)" style="fill:#407BFF;" width="7.33" height="15.244"/>
				
					<rect x="376.825" y="209.396" transform="matrix(0.9961 -0.0878 0.0878 0.9961 -17.9587 34.2687)" style="fill:#407BFF;" width="7.33" height="23.683"/>
			</g>
		</g>
		<polygon style="opacity:0.8;fill:#FFFFFF;" points="90.964,168.74 96.969,237.38 194.714,245.866 188.709,177.227 		"/>
		<g>
			<path style="fill:#FFFFFF;" d="M160.772,200.52l-52.457-4.555c-2.21-0.192-4.157-2.125-4.349-4.318l-0.661-7.559
				c-0.192-2.193,1.444-3.815,3.654-3.623l52.457,4.555c2.21,0.192,4.157,2.125,4.348,4.318l0.661,7.559
				C164.618,199.089,162.982,200.712,160.772,200.52z"/>
			<path style="fill:#407BFF;" d="M116.987,189.027c0.23,2.623-1.727,4.564-4.371,4.334c-2.643-0.229-4.972-2.542-5.202-5.166
				c-0.229-2.623,1.727-4.564,4.371-4.334C114.429,184.091,116.758,186.404,116.987,189.027z"/>
			<g>
				<g>
					<path style="fill:#263238;" d="M123.113,186.892c-0.574-0.05-1.079-0.552-1.129-1.122c-0.05-0.57,0.375-0.991,0.949-0.941
						l32.15,2.791c0.574,0.05,1.08,0.552,1.129,1.121c0.05,0.57-0.375,0.991-0.949,0.941L123.113,186.892z"/>
					<path style="fill:#263238;" d="M123.764,194.329c-0.574-0.05-1.079-0.552-1.129-1.122c-0.05-0.57,0.375-0.991,0.949-0.941
						l18.831,1.635c0.574,0.05,1.079,0.552,1.129,1.122c0.05,0.57-0.375,0.991-0.949,0.941L123.764,194.329z"/>
					<path style="fill:#263238;" d="M123.438,190.611c-0.574-0.05-1.079-0.552-1.129-1.121c-0.05-0.57,0.375-0.991,0.949-0.941
						l27.27,2.368c0.574,0.05,1.08,0.552,1.129,1.121c0.05,0.57-0.375,0.991-0.949,0.941L123.438,190.611z"/>
				</g>
				<g style="opacity:0.5;">
					<path style="fill:#FFFFFF;" d="M123.113,186.892c-0.574-0.05-1.079-0.552-1.129-1.122c-0.05-0.57,0.375-0.991,0.949-0.941
						l32.15,2.791c0.574,0.05,1.08,0.552,1.129,1.121c0.05,0.57-0.375,0.991-0.949,0.941L123.113,186.892z"/>
					<path style="fill:#FFFFFF;" d="M123.764,194.329c-0.574-0.05-1.079-0.552-1.129-1.122c-0.05-0.57,0.375-0.991,0.949-0.941
						l18.831,1.635c0.574,0.05,1.079,0.552,1.129,1.122c0.05,0.57-0.375,0.991-0.949,0.941L123.764,194.329z"/>
					<path style="fill:#FFFFFF;" d="M123.438,190.611c-0.574-0.05-1.079-0.552-1.129-1.121c-0.05-0.57,0.375-0.991,0.949-0.941
						l27.27,2.368c0.574,0.05,1.08,0.552,1.129,1.121c0.05,0.57-0.375,0.991-0.949,0.941L123.438,190.611z"/>
				</g>
			</g>
			<path style="fill:#407BFF;" d="M163.512,177.85l-6.133-0.467c-0.843-0.064-1.46,0.563-1.377,1.401l0.502,5.102
				c0.082,0.836,0.829,1.567,1.671,1.633l1.775,0.141l0.87,1.245c0.295,0.422,0.887,0.464,1.098,0.077l0.624-1.146l1.765,0.14
				c0.845,0.067,1.465-0.561,1.382-1.401l-0.501-5.092C165.105,178.645,164.355,177.914,163.512,177.85z"/>
			<g style="opacity:0.9;">
				<path style="fill:#FFFFFF;" d="M158.794,181.995c-0.528-0.517-0.785-1.054-0.826-1.519c-0.069-0.793,0.417-1.275,1.225-1.205
					c0.753,0.065,1.04,0.434,1.525,0.973c0.397-0.463,0.624-0.787,1.377-0.721c0.808,0.07,1.387,0.645,1.456,1.438
					c0.041,0.465-0.125,0.966-0.57,1.398l-1.913,1.887L158.794,181.995z"/>
			</g>
		</g>
		<g>
			<path style="fill:#FFFFFF;" d="M175.11,219.937l-52.457-4.555c-2.21-0.192-4.157-2.125-4.349-4.318l-0.661-7.559
				c-0.192-2.193,1.444-3.815,3.654-3.623l52.457,4.555c2.21,0.192,4.157,2.125,4.348,4.318l0.661,7.559
				C178.955,218.506,177.319,220.129,175.11,219.937z"/>
			<path style="fill:#407BFF;" d="M131.325,208.444c0.229,2.623-1.727,4.564-4.371,4.334c-2.644-0.23-4.972-2.542-5.202-5.166
				c-0.229-2.623,1.727-4.564,4.371-4.334C128.766,203.508,131.095,205.821,131.325,208.444z"/>
			<g>
				<g>
					<path style="fill:#263238;" d="M137.451,206.309c-0.574-0.05-1.08-0.552-1.129-1.122c-0.05-0.57,0.375-0.991,0.949-0.941
						l32.15,2.791c0.574,0.05,1.08,0.552,1.129,1.122c0.05,0.57-0.375,0.991-0.949,0.941L137.451,206.309z"/>
					<path style="fill:#263238;" d="M138.101,213.746c-0.574-0.05-1.08-0.552-1.129-1.122c-0.05-0.57,0.375-0.991,0.949-0.941
						l18.83,1.635c0.574,0.05,1.08,0.552,1.129,1.122c0.05,0.569-0.375,0.991-0.949,0.941L138.101,213.746z"/>
					<path style="fill:#263238;" d="M137.776,210.028c-0.574-0.05-1.079-0.552-1.129-1.122c-0.05-0.57,0.375-0.991,0.949-0.941
						l27.27,2.368c0.574,0.05,1.079,0.552,1.129,1.121c0.05,0.57-0.375,0.991-0.949,0.941L137.776,210.028z"/>
				</g>
				<g style="opacity:0.5;">
					<path style="fill:#FFFFFF;" d="M137.451,206.309c-0.574-0.05-1.08-0.552-1.129-1.122c-0.05-0.57,0.375-0.991,0.949-0.941
						l32.15,2.791c0.574,0.05,1.08,0.552,1.129,1.122c0.05,0.57-0.375,0.991-0.949,0.941L137.451,206.309z"/>
					<path style="fill:#FFFFFF;" d="M138.101,213.746c-0.574-0.05-1.08-0.552-1.129-1.122c-0.05-0.57,0.375-0.991,0.949-0.941
						l18.83,1.635c0.574,0.05,1.08,0.552,1.129,1.122c0.05,0.569-0.375,0.991-0.949,0.941L138.101,213.746z"/>
					<path style="fill:#FFFFFF;" d="M137.776,210.028c-0.574-0.05-1.079-0.552-1.129-1.122c-0.05-0.57,0.375-0.991,0.949-0.941
						l27.27,2.368c0.574,0.05,1.079,0.552,1.129,1.121c0.05,0.57-0.375,0.991-0.949,0.941L137.776,210.028z"/>
				</g>
			</g>
			<path style="fill:#407BFF;" d="M177.849,197.267l-6.133-0.467c-0.843-0.064-1.46,0.563-1.377,1.401l0.502,5.102
				c0.082,0.836,0.829,1.567,1.671,1.633l1.775,0.141l0.87,1.245c0.295,0.422,0.887,0.464,1.098,0.077l0.624-1.146l1.765,0.14
				c0.845,0.067,1.465-0.561,1.382-1.401l-0.501-5.092C179.442,198.062,178.692,197.331,177.849,197.267z"/>
			<g style="opacity:0.9;">
				<path style="fill:#FFFFFF;" d="M173.132,201.411c-0.528-0.516-0.785-1.054-0.826-1.519c-0.069-0.793,0.417-1.275,1.225-1.205
					c0.753,0.065,1.04,0.434,1.525,0.973c0.397-0.463,0.624-0.787,1.377-0.721c0.808,0.07,1.387,0.645,1.456,1.438
					c0.041,0.464-0.125,0.966-0.57,1.397l-1.913,1.887L173.132,201.411z"/>
			</g>
		</g>
		<g>
			<path style="fill:#FFFFFF;" d="M168.255,238.747l-52.457-4.554c-2.21-0.192-4.157-2.125-4.349-4.318l-0.661-7.559
				c-0.192-2.193,1.444-3.815,3.654-3.623l52.457,4.554c2.21,0.192,4.157,2.125,4.348,4.318l0.661,7.559
				C172.101,237.317,170.465,238.939,168.255,238.747z"/>
			<path style="fill:#407BFF;" d="M124.47,227.254c0.23,2.623-1.727,4.564-4.371,4.335c-2.644-0.23-4.973-2.542-5.202-5.166
				c-0.229-2.623,1.727-4.564,4.371-4.334C121.912,222.318,124.241,224.631,124.47,227.254z"/>
			<g>
				<g>
					<path style="fill:#263238;" d="M130.596,225.119c-0.574-0.05-1.08-0.552-1.129-1.121c-0.05-0.57,0.375-0.991,0.949-0.941
						l32.15,2.791c0.574,0.05,1.079,0.552,1.129,1.121c0.05,0.57-0.375,0.991-0.949,0.941L130.596,225.119z"/>
					<path style="fill:#263238;" d="M131.247,232.557c-0.574-0.05-1.079-0.552-1.129-1.121c-0.05-0.57,0.375-0.991,0.949-0.941
						l25.884,2.247c0.574,0.05,1.079,0.552,1.129,1.121c0.05,0.57-0.375,0.991-0.949,0.941L131.247,232.557z"/>
					<path style="fill:#263238;" d="M130.922,228.838c-0.574-0.05-1.08-0.552-1.129-1.121c-0.05-0.57,0.375-0.991,0.949-0.941
						l23.239,2.018c0.574,0.05,1.079,0.552,1.129,1.121c0.05,0.57-0.375,0.991-0.949,0.941L130.922,228.838z"/>
				</g>
				<g style="opacity:0.5;">
					<path style="fill:#FFFFFF;" d="M130.596,225.119c-0.574-0.05-1.08-0.552-1.129-1.121c-0.05-0.57,0.375-0.991,0.949-0.941
						l32.15,2.791c0.574,0.05,1.079,0.552,1.129,1.121c0.05,0.57-0.375,0.991-0.949,0.941L130.596,225.119z"/>
					<path style="fill:#FFFFFF;" d="M131.247,232.557c-0.574-0.05-1.079-0.552-1.129-1.121c-0.05-0.57,0.375-0.991,0.949-0.941
						l25.884,2.247c0.574,0.05,1.079,0.552,1.129,1.121c0.05,0.57-0.375,0.991-0.949,0.941L131.247,232.557z"/>
					<path style="fill:#FFFFFF;" d="M130.922,228.838c-0.574-0.05-1.08-0.552-1.129-1.121c-0.05-0.57,0.375-0.991,0.949-0.941
						l23.239,2.018c0.574,0.05,1.079,0.552,1.129,1.121c0.05,0.57-0.375,0.991-0.949,0.941L130.922,228.838z"/>
				</g>
			</g>
			<path style="fill:#407BFF;" d="M171.171,218.093l-6.133-0.467c-0.843-0.064-1.46,0.563-1.377,1.401l0.502,5.102
				c0.082,0.836,0.829,1.567,1.671,1.633l1.775,0.141l0.87,1.245c0.295,0.422,0.887,0.464,1.098,0.077l0.624-1.146l1.765,0.14
				c0.845,0.067,1.465-0.561,1.382-1.401l-0.501-5.092C172.764,218.889,172.014,218.157,171.171,218.093z"/>
			<g>
				<path style="opacity:0.9;fill:#FFFFFF;" d="M166.492,223.815L166.492,223.815c-0.25-0.022-0.471-0.241-0.493-0.489l-0.15-1.717
					c-0.022-0.249,0.164-0.432,0.414-0.411l0,0c0.25,0.022,0.471,0.241,0.493,0.489l0.15,1.717
					C166.928,223.653,166.743,223.836,166.492,223.815z"/>
				<path style="opacity:0.9;fill:#FFFFFF;" d="M167.344,221.205c0.302-0.239,1.059-0.926,1.057-1.807
					c-0.001-0.432,0.614-0.51,0.837-0.098c0.167,0.309,0.206,0.852-0.098,1.802l1.158,0.101c0.309,0.027,0.605,0.233,0.753,0.525
					l0,0c0.086,0.171,0.115,0.356,0.08,0.524l-0.341,1.638c-0.076,0.365-0.428,0.567-0.82,0.473l-2.214-0.533
					c-0.184-0.044-0.33-0.211-0.346-0.393l-0.172-1.961C167.227,221.366,167.265,221.267,167.344,221.205z"/>
			</g>
		</g>
		<polygon style="opacity:0.8;fill:#FFFFFF;" points="194.73,177.489 200.735,246.129 297.738,246.129 291.733,177.489 		"/>
		<g>
			<g style="opacity:0.2;">
				<path d="M197.709,245.809L197.709,245.809c-0.414,0-0.779-0.336-0.816-0.75l-1.891-21.612c-0.036-0.414,0.27-0.75,0.684-0.75
					l0,0c0.414,0,0.779,0.336,0.816,0.75l1.891,21.612C198.43,245.473,198.123,245.809,197.709,245.809z"/>
			</g>
			<g style="opacity:0.2;">
				<path d="M195.468,220.197L195.468,220.197c-0.414,0-0.779-0.336-0.816-0.75l-2.683-30.667c-0.036-0.414,0.27-0.75,0.684-0.75
					l0,0c0.414,0,0.779,0.336,0.816,0.75l2.683,30.667C196.189,219.861,195.883,220.197,195.468,220.197z"/>
			</g>
			<g style="opacity:0.2;">
				<path d="M192.45,185.697L192.45,185.697c-0.414,0-0.779-0.336-0.816-0.75l-0.559-6.388c-0.036-0.414,0.27-0.75,0.684-0.75l0,0
					c0.414,0,0.779,0.336,0.816,0.75l0.559,6.388C193.171,185.361,192.864,185.697,192.45,185.697z"/>
			</g>
		</g>
		<g>
			<g style="opacity:0.2;">
				<path d="M300.708,245.809L300.708,245.809c-0.414,0-0.779-0.336-0.816-0.75l-2.751-31.446c-0.036-0.414,0.27-0.75,0.684-0.75
					l0,0c0.414,0,0.779,0.336,0.816,0.75l2.751,31.446C301.428,245.473,301.122,245.809,300.708,245.809z"/>
			</g>
			<g style="opacity:0.2;">
				<path d="M297.636,210.696L297.636,210.696c-0.414,0-0.779-0.336-0.816-0.75l-2.143-24.5c-0.036-0.414,0.27-0.75,0.684-0.75l0,0
					c0.414,0,0.779,0.336,0.816,0.75l2.143,24.5C298.356,210.361,298.05,210.696,297.636,210.696z"/>
			</g>
			<g style="opacity:0.2;">
				<path d="M295.104,181.753L295.104,181.753c-0.414,0-0.779-0.336-0.816-0.75l-0.214-2.444c-0.036-0.414,0.27-0.75,0.684-0.75l0,0
					c0.414,0,0.779,0.336,0.816,0.75l0.214,2.444C295.824,181.417,295.518,181.753,295.104,181.753z"/>
			</g>
		</g>
		<g>
			<path style="fill:#407BFF;" d="M280.42,207.707c-0.05-0.57,0.371-1.031,0.941-1.031c0.57,0,1.072,0.462,1.122,1.031l1.186,13.563
				c0.05,0.57-0.371,1.031-0.941,1.031c-0.569,0-1.072-0.462-1.121-1.031L280.42,207.707z"/>
			<g>
				<path style="fill:#263238;" d="M202.028,183.262c-0.57,0-1.072-0.462-1.122-1.031c-0.05-0.57,0.372-1.031,0.941-1.031h23.563
					c0.57,0,1.072,0.462,1.121,1.031c0.05,0.57-0.371,1.031-0.941,1.031H202.028z"/>
				<path style="fill:#263238;" d="M202.679,190.699c-0.569,0-1.072-0.462-1.121-1.031c-0.05-0.57,0.371-1.031,0.941-1.031h19.563
					c0.569,0,1.072,0.462,1.121,1.031c0.05,0.57-0.372,1.031-0.941,1.031H202.679z"/>
				<path style="fill:#263238;" d="M202.354,186.98c-0.57,0-1.072-0.462-1.122-1.031c-0.05-0.57,0.372-1.031,0.941-1.031h15.563
					c0.57,0,1.072,0.462,1.122,1.031c0.05,0.57-0.372,1.031-0.941,1.031H202.354z"/>
			</g>
			<g style="opacity:0.5;">
				<path style="fill:#FFFFFF;" d="M202.028,183.262c-0.57,0-1.072-0.462-1.122-1.031c-0.05-0.57,0.372-1.031,0.941-1.031h23.563
					c0.57,0,1.072,0.462,1.121,1.031c0.05,0.57-0.371,1.031-0.941,1.031H202.028z"/>
				<path style="fill:#FFFFFF;" d="M202.679,190.699c-0.569,0-1.072-0.462-1.121-1.031c-0.05-0.57,0.371-1.031,0.941-1.031h19.563
					c0.569,0,1.072,0.462,1.121,1.031c0.05,0.57-0.372,1.031-0.941,1.031H202.679z"/>
				<path style="fill:#FFFFFF;" d="M202.354,186.98c-0.57,0-1.072-0.462-1.122-1.031c-0.05-0.57,0.372-1.031,0.941-1.031h15.563
					c0.57,0,1.072,0.462,1.122,1.031c0.05,0.57-0.372,1.031-0.941,1.031H202.354z"/>
			</g>
			<g>
				<path style="fill:#407BFF;" d="M286.049,199.257c0.258,2.947-1.922,5.337-4.87,5.337s-5.546-2.389-5.803-5.337
					c-0.258-2.947,1.922-5.337,4.87-5.337C283.193,193.921,285.791,196.31,286.049,199.257z"/>
				<g>
					<path style="fill:#FFFFFF;" d="M278.086,201.803L278.086,201.803c-0.325,0-0.612-0.264-0.64-0.589l-0.197-2.247
						c-0.028-0.325,0.212-0.589,0.537-0.589l0,0c0.325,0,0.612,0.264,0.64,0.589l0.197,2.247
						C278.652,201.54,278.411,201.803,278.086,201.803z"/>
					<path style="fill:#FFFFFF;" d="M279.19,198.265c0.392-0.35,1.375-1.342,1.371-2.503c-0.002-0.57,0.796-0.742,1.086-0.225
						c0.217,0.388,0.268,1.1-0.125,2.386h1.503c0.402,0,0.786,0.238,0.978,0.607l0,0c0.112,0.215,0.149,0.456,0.104,0.682
						l-0.441,2.198c-0.098,0.489-0.555,0.797-1.065,0.717l-2.876-0.449c-0.238-0.037-0.429-0.24-0.45-0.478l-0.224-2.566
						C279.039,198.491,279.088,198.356,279.19,198.265z"/>
				</g>
			</g>
			<g>
				<path style="fill:#407BFF;" d="M288.714,229.72c-0.258-2.947-2.856-5.337-5.803-5.337c-2.947,0-5.128,2.389-4.87,5.337
					c0.258,2.947,2.856,5.337,5.803,5.337S288.972,232.667,288.714,229.72z"/>
				<g>
					<path style="fill:#FFFFFF;" d="M280.306,227.174L280.306,227.174c-0.325,0-0.566,0.264-0.537,0.589l0.197,2.247
						c0.029,0.325,0.315,0.589,0.64,0.589l0,0c0.325,0,0.566-0.264,0.537-0.589l-0.197-2.247
						C280.918,227.438,280.631,227.174,280.306,227.174z"/>
					<path style="fill:#FFFFFF;" d="M282.028,230.712c0.453,0.35,1.609,1.342,1.809,2.503c0.098,0.57,0.926,0.742,1.125,0.225
						c0.149-0.388,0.075-1.1-0.543-2.386h1.503c0.402,0,0.744-0.238,0.872-0.607l0,0c0.075-0.215,0.069-0.456-0.015-0.681
						l-0.825-2.198c-0.184-0.489-0.694-0.797-1.19-0.717l-2.797,0.449c-0.232,0.037-0.387,0.24-0.366,0.478l0.224,2.565
						C281.838,230.486,281.91,230.621,282.028,230.712z"/>
				</g>
			</g>
			<g>
				<g>
					
						<ellipse transform="matrix(0.6915 -0.7224 0.7224 0.6915 -78.991 244.1105)" style="fill:#407BFF;" cx="246.293" cy="214.533" rx="26.403" ry="28.816"/>
					<path style="opacity:0.6;fill:#FFFFFF;" d="M264.091,195.028c-5.428-4.992-12.594-8.079-20.211-8.079
						c-15.234,0-26.503,12.35-25.17,27.583h27.583L264.091,195.028z"/>
					<g>
						<path style="opacity:0.2;" d="M225.082,195.028l21.211,19.504l-2.413-27.583C236.263,186.949,229.637,190.037,225.082,195.028
							z"/>
						<path style="fill:#407BFF;" d="M225.082,195.028l21.211,19.504l-2.413-27.583
							C236.263,186.949,229.637,190.037,225.082,195.028z"/>
						<path style="opacity:0.3;" d="M225.082,195.028l21.211,19.504l-2.413-27.583C236.263,186.949,229.637,190.037,225.082,195.028
							z"/>
					</g>
					<path style="opacity:0.3;fill:#FFFFFF;" d="M248.706,242.116c15.234,0,26.503-12.35,25.17-27.583h-27.583l-17.798,19.504
						C233.923,239.029,241.089,242.116,248.706,242.116z"/>
				</g>
				<g>
					<path style="fill:#263238;" d="M266.757,237.401c0.324,3.703-2.415,6.705-6.118,6.705c-3.703,0-6.967-3.002-7.291-6.705
						c-0.324-3.703,2.415-6.705,6.118-6.705C263.168,230.696,266.432,233.698,266.757,237.401z"/>
					<g>
						<path style="fill:#407BFF;" d="M257.724,238.516c-0.612-0.553-0.91-1.16-0.957-1.702c-0.081-0.926,0.482-1.543,1.418-1.543
							c0.872,0,1.206,0.404,1.767,0.989c0.46-0.585,0.722-0.989,1.594-0.989c0.936,0,1.607,0.617,1.688,1.543
							c0.047,0.542-0.144,1.149-0.66,1.702l-2.214,2.415L257.724,238.516z"/>
					</g>
				</g>
				<g>
					<path style="fill:#263238;" d="M228.931,203.803c0.324,3.703-2.415,6.705-6.118,6.705c-3.703,0-6.967-3.002-7.291-6.705
						c-0.324-3.703,2.415-6.705,6.118-6.705C225.343,197.098,228.607,200.1,228.931,203.803z"/>
					<g>
						<path style="fill:#407BFF;" d="M226.449,203.803c0.204,2.332-1.521,4.223-3.854,4.223c-2.332,0-4.388-1.891-4.593-4.223
							c-0.204-2.332,1.521-4.223,3.854-4.223C224.189,199.58,226.245,201.471,226.449,203.803z"/>
						<path style="opacity:0.5;fill:#FFFFFF;" d="M226.449,203.803c0.204,2.332-1.521,4.223-3.854,4.223
							c-2.332,0-4.388-1.891-4.593-4.223c-0.204-2.332,1.521-4.223,3.854-4.223C224.189,199.58,226.245,201.471,226.449,203.803z"/>
						<g>
							<g>
								<path style="fill:#407BFF;" d="M223.773,204.698c-0.79,0.792-2.007,0.794-2.937,0c-0.371-0.316-0.841,0.196-0.468,0.513
									c1.248,1.065,2.902,1.065,3.964,0C224.648,204.894,224.089,204.382,223.773,204.698L223.773,204.698z"/>
							</g>
							<g>
								<path style="fill:#407BFF;" d="M221.097,202.428c0.04,0.459-0.087,0.832-0.285,0.832s-0.391-0.372-0.431-0.832
									c-0.04-0.46,0.088-0.832,0.285-0.832C220.864,201.596,221.057,201.968,221.097,202.428z"/>
								<path style="fill:#407BFF;" d="M223.831,202.428c0.04,0.459-0.087,0.832-0.285,0.832s-0.391-0.372-0.431-0.832
									c-0.04-0.46,0.088-0.832,0.285-0.832C223.598,201.596,223.791,201.968,223.831,202.428z"/>
							</g>
						</g>
					</g>
				</g>
				<g>
					<path style="fill:#263238;" d="M269.871,197.708c0.324,3.703-2.415,6.705-6.118,6.705c-3.703,0-6.967-3.002-7.291-6.705
						c-0.324-3.703,2.415-6.705,6.118-6.705C266.283,191.003,269.547,194.005,269.871,197.708z"/>
					<g>
						<path style="fill:#407BFF;" d="M267.39,197.708c0.204,2.332-1.521,4.223-3.854,4.223c-2.332,0-4.389-1.891-4.592-4.223
							c-0.204-2.332,1.521-4.223,3.854-4.223C265.129,193.485,267.186,195.376,267.39,197.708z"/>
						<path style="opacity:0.5;fill:#FFFFFF;" d="M267.39,197.708c0.204,2.332-1.521,4.223-3.854,4.223
							c-2.332,0-4.389-1.891-4.592-4.223c-0.204-2.332,1.521-4.223,3.854-4.223C265.129,193.485,267.186,195.376,267.39,197.708z"/>
						<g>
							<g>
								<path style="fill:#407BFF;" d="M261.883,199.816c0.79-0.792,2.007-0.794,2.937,0c0.371,0.316,0.841-0.196,0.468-0.513
									c-1.248-1.065-2.902-1.065-3.964,0C261.008,199.62,261.567,200.132,261.883,199.816L261.883,199.816z"/>
							</g>
							<g>
								<path style="fill:#407BFF;" d="M262.037,196.333c0.04,0.46-0.088,0.832-0.285,0.832c-0.198,0-0.391-0.372-0.431-0.832
									c-0.04-0.459,0.088-0.832,0.285-0.832C261.804,195.501,261.997,195.873,262.037,196.333z"/>
								<path style="fill:#407BFF;" d="M264.771,196.333c0.04,0.46-0.088,0.832-0.285,0.832c-0.198,0-0.391-0.372-0.431-0.832
									c-0.04-0.459,0.087-0.832,0.285-0.832C264.538,195.501,264.731,195.873,264.771,196.333z"/>
							</g>
						</g>
					</g>
				</g>
				<g>
					<path style="fill:#263238;" d="M229.489,224.383c0.324,3.703-2.415,6.705-6.118,6.705c-3.703,0-6.967-3.002-7.291-6.705
						c-0.324-3.703,2.415-6.705,6.118-6.705C225.9,217.679,229.165,220.68,229.489,224.383z"/>
					<g>
						<g>
							<path style="fill:#407BFF;" d="M227.007,224.383c0.204,2.332-1.521,4.223-3.854,4.223c-2.332,0-4.389-1.891-4.592-4.223
								c-0.204-2.332,1.521-4.223,3.854-4.223C224.747,220.16,226.803,222.051,227.007,224.383z"/>
							<path style="opacity:0.5;fill:#FFFFFF;" d="M227.007,224.383c0.204,2.332-1.521,4.223-3.854,4.223
								c-2.332,0-4.389-1.891-4.592-4.223c-0.204-2.332,1.521-4.223,3.854-4.223C224.747,220.16,226.803,222.051,227.007,224.383z"
								/>
						</g>
						<g>
							<path style="fill:#407BFF;" d="M220.806,225.722c1.259,1.157,3.135,1.157,4.191,0l-0.062-0.706h-4.191L220.806,225.722z"/>
						</g>
						<g>
							<g>
								<path style="fill:#407BFF;" d="M222.226,223.117c-0.614-0.486-1.311-0.486-1.839,0c-0.247,0.227,0.173,0.611,0.419,0.385
									c0.313-0.288,0.706-0.288,1.069,0C222.16,223.727,222.513,223.344,222.226,223.117L222.226,223.117z"/>
							</g>
							<g>
								<path style="fill:#407BFF;" d="M224.96,223.117c-0.614-0.486-1.311-0.486-1.839,0c-0.247,0.227,0.173,0.611,0.419,0.385
									c0.313-0.288,0.706-0.288,1.069,0C224.894,223.727,225.247,223.344,224.96,223.117L224.96,223.117z"/>
							</g>
						</g>
					</g>
				</g>
			</g>
		</g>
		<g>
			<polygon style="fill:#407BFF;" points="298.882,272.284 267.869,272.284 267.869,277.325 329.895,277.325 329.895,275.253 			"/>
			<polygon style="opacity:0.6;fill:#FFFFFF;" points="298.882,272.284 267.869,272.284 267.869,277.325 329.895,277.325 
				329.895,275.253 			"/>
			<polygon style="opacity:0.6;fill:#FFFFFF;" points="298.882,277.325 267.869,277.325 267.869,272.284 298.882,275.253 			"/>
		</g>
		<g style="opacity:0.5;">
			<polygon style="fill:#FFFFFF;" points="398.235,217.507 393.968,168.74 388.194,169.249 363.457,240.599 391.073,238.164 			"/>
		</g>
		<g style="opacity:0.5;">
			<polygon style="fill:#FFFFFF;" points="266.911,246.129 290.708,177.489 263.937,177.489 240.139,246.129 			"/>
		</g>
		<polygon style="opacity:0.5;fill:#FFFFFF;" points="170.07,243.727 189.599,187.398 188.709,177.227 167.007,175.342 
			144.081,241.47 		"/>
	</g>
</g>
<g id="Desk">
	<g>
		<g>
			<path style="fill:#407BFF;" d="M347.775,287.184H151.964c-0.952,0-1.723-0.771-1.723-1.723v-4.251h199.256v4.251
				C349.497,286.413,348.726,287.184,347.775,287.184z"/>
			<path style="opacity:0.2;" d="M347.775,287.184H151.964c-0.952,0-1.723-0.771-1.723-1.723v-4.251h199.256v4.251
				C349.497,286.413,348.726,287.184,347.775,287.184z"/>
			<path style="opacity:0.3;fill:#FFFFFF;" d="M240.441,287.184h-88.477c-0.952,0-1.723-0.771-1.723-1.723v-4.251h90.2V287.184z"/>
		</g>
		<g>
			<path style="fill:#407BFF;" d="M353.555,282.325H146.183c-1.122,0-2.032-0.91-2.032-2.032v-0.936c0-1.122,0.91-2.032,2.032-2.032
				h207.372c1.122,0,2.032,0.91,2.032,2.032v0.936C355.587,281.415,354.677,282.325,353.555,282.325z"/>
			<path style="opacity:0.4;fill:#FFFFFF;" d="M240.441,282.325h-94.258c-1.122,0-2.032-0.91-2.032-2.032v-0.936
				c0-1.122,0.91-2.032,2.032-2.032h94.258V282.325z"/>
		</g>
		<g>
			<g>
				<path style="fill:#263238;" d="M229.921,407.409H160.76c-4.146,0-7.519-3.373-7.519-7.52V294.716
					c0-4.146,3.373-7.518,7.519-7.518h69.161c4.146,0,7.52,3.373,7.52,7.518v105.173
					C237.441,404.035,234.068,407.409,229.921,407.409z M160.76,291.198c-1.94,0-3.519,1.578-3.519,3.518v105.173
					c0,1.94,1.579,3.52,3.519,3.52h69.161c1.941,0,3.52-1.579,3.52-3.52V294.716c0-1.94-1.579-3.518-3.52-3.518H160.76z"/>
			</g>
			<g style="opacity:0.4;">
				<path style="opacity:0.2;fill:#FFFFFF;" d="M229.921,407.409H160.76c-4.146,0-7.519-3.373-7.519-7.52V294.716
					c0-4.146,3.373-7.518,7.519-7.518h69.161c4.146,0,7.52,3.373,7.52,7.518v105.173
					C237.441,404.035,234.068,407.409,229.921,407.409z M160.76,291.198c-1.94,0-3.519,1.578-3.519,3.518v105.173
					c0,1.94,1.579,3.52,3.519,3.52h69.161c1.941,0,3.52-1.579,3.52-3.52V294.716c0-1.94-1.579-3.518-3.52-3.518H160.76z"/>
			</g>
			<path style="opacity:0.2;" d="M229.921,287.198H160.76c-3.889,0-7.098,2.969-7.48,6.759h4.049
				c0.349-1.575,1.753-2.759,3.431-2.759h69.161c1.679,0,3.083,1.183,3.432,2.759h4.049
				C237.02,290.166,233.811,287.198,229.921,287.198z"/>
		</g>
		<g>
			<g>
				<path style="fill:#263238;" d="M337.577,407.409h-69.161c-4.146,0-7.519-3.373-7.519-7.52V294.716
					c0-4.146,3.373-7.518,7.519-7.518h69.161c4.146,0,7.52,3.373,7.52,7.518v105.173
					C345.097,404.035,341.724,407.409,337.577,407.409z M268.416,291.198c-1.94,0-3.519,1.578-3.519,3.518v105.173
					c0,1.94,1.579,3.52,3.519,3.52h69.161c1.941,0,3.52-1.579,3.52-3.52V294.716c0-1.94-1.579-3.518-3.52-3.518H268.416z"/>
			</g>
			<path style="opacity:0.1;fill:#FFFFFF;" d="M337.577,407.409h-69.161c-4.146,0-7.519-3.373-7.519-7.52V294.716
				c0-4.146,3.373-7.518,7.519-7.518h69.161c4.146,0,7.52,3.373,7.52,7.518v105.173
				C345.097,404.035,341.724,407.409,337.577,407.409z M268.416,291.198c-1.94,0-3.519,1.578-3.519,3.518v105.173
				c0,1.94,1.579,3.52,3.519,3.52h69.161c1.941,0,3.52-1.579,3.52-3.52V294.716c0-1.94-1.579-3.518-3.52-3.518H268.416z"/>
			<path style="opacity:0.2;" d="M337.577,287.198h-69.161c-3.889,0-7.098,2.969-7.48,6.759h4.049
				c0.349-1.575,1.752-2.759,3.431-2.759h69.161c1.679,0,3.083,1.183,3.432,2.759h4.049
				C344.676,290.166,341.467,287.198,337.577,287.198z"/>
		</g>
	</g>
</g>
<g id="Device">
	<g>
		<path style="fill:#407BFF;" d="M213.207,311.908H135.86c-4.652,0-8.423,3.771-8.423,8.423v79.043c0,4.652,3.771,8.423,8.423,8.423
			h77.347c4.652,0,8.423-3.771,8.423-8.423v-79.043C221.63,315.679,217.859,311.908,213.207,311.908z"/>
		<path style="opacity:0.4;fill:#FFFFFF;" d="M213.207,311.908H135.86c-4.652,0-8.423,3.771-8.423,8.423v79.043
			c0,4.652,3.771,8.423,8.423,8.423h77.347c4.652,0,8.423-3.771,8.423-8.423v-79.043
			C221.63,315.679,217.859,311.908,213.207,311.908z"/>
		<path style="opacity:0.1;" d="M127.437,399.307v0.067c0,4.652,3.771,8.423,8.423,8.423h77.347c4.652,0,8.423-3.771,8.423-8.423
			v-0.067H127.437z"/>
		<path style="fill:#407BFF;" d="M213.207,407.797h-21.443c-4.652,0-8.423-3.771-8.423-8.423v-79.043
			c0-4.652,3.771-8.423,8.423-8.423h21.443c4.652,0,8.423,3.771,8.423,8.423v79.043C221.63,404.026,217.859,407.797,213.207,407.797
			z"/>
		<path style="opacity:0.3;fill:#FFFFFF;" d="M213.207,403.297c2.163,0,3.923-1.76,3.923-3.923v-79.043
			c0-2.163-1.76-3.923-3.923-3.923h-21.443c-2.163,0-3.923,1.76-3.923,3.923v79.043c0,2.163,1.76,3.923,3.923,3.923H213.207z"/>
		<g>
			<g>
				<rect x="190.736" y="322.659" style="opacity:0.7;fill:#FFFFFF;" width="23.5" height="6.25"/>
				<rect x="190.736" y="330.159" style="opacity:0.7;fill:#FFFFFF;" width="23.5" height="6.25"/>
			</g>
			<g>
				<circle style="fill:#407BFF;" cx="202.486" cy="359.853" r="4.895"/>
				<g style="opacity:0.9;">
					<g>
						<path style="fill:#FFFFFF;" d="M203.624,358.884c0.938,1.017,0.307,2.741-1.138,2.747c-1.449,0.006-2.07-1.736-1.138-2.747
							c0.467-0.506-0.289-1.266-0.758-0.757c-1.556,1.687-0.511,4.576,1.895,4.576c2.408,0,3.451-2.889,1.895-4.576
							C203.913,357.619,203.156,358.378,203.624,358.884L203.624,358.884z"/>
					</g>
					<g>
						<path style="fill:#FFFFFF;" d="M201.95,356.998c0,0.813,0,1.627,0,2.44c0,0.689,1.071,0.69,1.071,0c0-0.813,0-1.627,0-2.44
							C203.021,356.309,201.95,356.308,201.95,356.998L201.95,356.998z"/>
					</g>
				</g>
			</g>
			<g>
				<circle style="fill:#407BFF;" cx="193.216" cy="374.325" r="1.5"/>
				<circle style="fill:#407BFF;" cx="199.396" cy="374.325" r="1.5"/>
				<circle style="fill:#407BFF;" cx="205.576" cy="374.325" r="1.5"/>
				<circle style="fill:#407BFF;" cx="211.755" cy="374.325" r="1.5"/>
				<circle style="fill:#407BFF;" cx="196.306" cy="379.659" r="1.5"/>
				<circle style="fill:#407BFF;" cx="202.486" cy="379.659" r="1.5"/>
				<circle style="fill:#407BFF;" cx="208.666" cy="379.659" r="1.5"/>
				<circle style="fill:#407BFF;" cx="193.216" cy="385.566" r="1.5"/>
				<circle style="fill:#407BFF;" cx="199.396" cy="385.566" r="1.5"/>
				<circle style="fill:#407BFF;" cx="205.576" cy="385.566" r="1.5"/>
				<circle style="fill:#407BFF;" cx="211.755" cy="385.566" r="1.5"/>
				<circle style="fill:#407BFF;" cx="196.306" cy="390.899" r="1.5"/>
				<circle style="fill:#407BFF;" cx="202.486" cy="390.899" r="1.5"/>
				<circle style="fill:#407BFF;" cx="208.666" cy="390.899" r="1.5"/>
				<circle style="fill:#407BFF;" cx="193.216" cy="396.807" r="1.5"/>
				<circle style="fill:#407BFF;" cx="199.396" cy="396.807" r="1.5"/>
				<circle style="fill:#407BFF;" cx="205.576" cy="396.807" r="1.5"/>
				<circle style="fill:#407BFF;" cx="211.755" cy="396.807" r="1.5"/>
			</g>
		</g>
	</g>
</g>
<g id="Character">
	<g>
		<g>
			<path style="fill:#FCC1BB;" d="M330.128,267.632l-6.041-2.723l-8.468,3.532v4.216c0,0,13.147-0.439,13.144-0.418
				c0,0,14.829,4.937,20.305,4.178c5.477-0.76,22.917-25.065,22.917-25.065l-8.762-7.671l-16.682,23.774L330.128,267.632z"/>
			<path style="opacity:0.1;" d="M330.128,267.632l-6.041-2.723l-8.468,3.532v4.216c0,0,13.147-0.439,13.144-0.418
				c0,0,0.371,0.124,1.016,0.328l4.243-4.977L330.128,267.632z"/>
			<path style="fill:#263238;" d="M357.325,250.591c0,0,6.066-10.786,9.942-14.204c2.353-2.075,5.632-2.721,7.846-2.908
				c1.392-0.118,2.583,0.986,2.594,2.383c0.031,4.263-1.08,13.538-9.85,23.084L357.325,250.591z"/>
			<path style="fill:#407BFF;" d="M357.325,248.56c0,0,7.386,3.475,11.711,10.311l-2.359,1.823c0,0-4.81-6.067-10.827-9.551
				L357.325,248.56z"/>
		</g>
		<g>
			<path style="fill:#EB827E;" d="M342.503,209.62l-2.993,4.704c0,0,1.56,1.151,3.743,0.368L342.503,209.62z"/>
			<g>
				<path style="fill:#407BFF;" d="M341.993,212.596c-1.837,0-3.331-1.598-3.331-3.563c0-1.964,1.495-3.563,3.331-3.563
					c1.837,0,3.331,1.598,3.331,3.563C345.324,210.998,343.83,212.596,341.993,212.596z M341.993,206.221
					c-1.423,0-2.581,1.262-2.581,2.813c0,1.551,1.158,2.813,2.581,2.813c1.423,0,2.581-1.262,2.581-2.813
					C344.574,207.483,343.416,206.221,341.993,206.221z"/>
			</g>
			<path style="fill:#1A2E35;" d="M340.699,208.965c-0.006,0.607,0.302,1.105,0.7,1.11c0.398,0.005,0.752-0.508,0.742-1.098
				c-0.01-0.59-0.302-1.104-0.701-1.103C341.041,207.874,340.712,208.359,340.699,208.965z"/>
			<path style="fill:#FCC1BB;" d="M364.124,205.173c0.267,8.069,0.555,11.485-3.106,15.986c-5.795,4.779-15.492,5.341-18.163-2.493
				c-2.408-7.047-2.44-19.03,5.115-23.012c5.386-2.836,12.051-0.77,14.888,4.616C363.654,201.784,364.087,203.463,364.124,205.173z"
				/>
			<path style="opacity:0.2;fill:#1A2E35;" d="M352.79,224.595l-0.058-0.395c-0.129-0.874-0.993-1.438-1.845-1.204l-3.28,0.899
				C349.184,224.556,350.966,224.769,352.79,224.595z"/>
			<path style="fill:#1A2E35;" d="M342.883,206.215c-0.106,0.012-0.212-0.029-0.282-0.11c-0.5-0.629-1.273-0.979-2.076-0.939
				c-0.172,0.021-0.33-0.1-0.354-0.272c-0.019-0.174,0.104-0.332,0.277-0.356c1.016-0.072,2.002,0.359,2.639,1.154
				c0.114,0.134,0.098,0.335-0.035,0.449l-0.001,0.001C343.002,206.18,342.944,206.206,342.883,206.215z"/>
			<polygon style="fill:#FCC1BB;" points="352.49,222.556 354.258,234.541 364.267,232.469 361.061,220.202 			"/>
			<path style="fill:#1A2E35;" d="M342.463,198.631c3.405,6.484,5.765,0.553,5.14,5.78c-0.626,5.226,1.252,6.92,1.252,6.92
				l6.856,10.225c0.363,0.541,1.059,0.719,1.655,0.458c1.779-0.78,2.933-0.609,3.567-0.351c0.445,0.181,0.945,0.128,1.305-0.191
				c1.548-1.37,5.222-5.296,6.35-12.496c2.211-14.108-8.63-16.259-8.63-16.259c-6.024-1.252-4.48-7.637-8.061-7.636
				c-2.73,0.001-1.926,4.494-1.926,4.494s-2.924-2.19-4.619-1.444c-2.19,0.963-0.248,5.457-0.248,5.457
				S339.125,192.273,342.463,198.631z"/>
			<g>
				<polygon style="fill:#407BFF;" points="349.512,207.533 339.509,207.533 339.991,206.533 349.512,206.533 				"/>
			</g>
			<path style="fill:#FFC3BD;" d="M347.459,208.768c-0.29,1.624,0.079,3.296,1.026,4.647c1.269,1.783,3.29,0.988,4.097-0.916
				c0.732-1.724,0.939-4.715-0.898-5.829C349.848,205.555,347.836,206.786,347.459,208.768z"/>
		</g>
		<path style="fill:#263238;" d="M349.79,230.158c0,0,6.426-6.074,13.167-5.583c4.583,0.333,6,6.083,6,6.083L349.79,230.158z"/>
		<path style="opacity:0.2;fill:#FFFFFF;" d="M349.79,230.158c0,0,6.426-6.074,13.167-5.583c4.583,0.333,6,6.083,6,6.083
			L349.79,230.158z"/>
		<path style="fill:#263238;" d="M354.131,303.659l-14.083-68.757c-0.564-2.753,1.297-5.281,4.06-5.511
			c8.833-0.737,26.645-1.449,32.601,4.018c13.883,12.745,14.984,71.25,14.984,71.25L354.131,303.659z"/>
		<path style="opacity:0.5;" d="M344.04,233.825c0,0-2.241,0.858-3.733,2.346l4.633,22.618c4.138-9.27,3.853-24.964,3.853-24.964
			H344.04z"/>
		<g>
			<path style="fill:#FCC1BB;" d="M302.056,266.771l-5.975-2.987l-8.375,3.875v4.625c0,0,13.003-0.481,13-0.458
				c0,0,14.667,5.417,20.083,4.583c5.417-0.833,22.667-27.5,22.667-27.5l-8.667-8.417l-16.5,26.083L302.056,266.771z"/>
			<path style="fill:#263238;" d="M328.957,248.075c0,0,6-11.833,9.833-15.583c3.833-3.75,10.155-3.246,10.155-3.246
				s2.25,13.723-9.572,27.996L328.957,248.075z"/>
			<path style="fill:#263238;" d="M328.957,245.846c0,0,7.305,3.813,11.583,11.313l-2.333,2c0,0-4.758-6.656-10.708-10.479
				L328.957,245.846z"/>
			<path style="opacity:0.2;fill:#FFFFFF;" d="M328.957,245.846c0,0,7.305,3.813,11.583,11.313l-2.333,2
				c0,0-4.758-6.656-10.708-10.479L328.957,245.846z"/>
		</g>
		<g>
			<g>
				<polygon style="fill:#FCC1BB;" points="350.082,378.721 353.509,395.324 360.269,394.324 358.644,378.159 				"/>
				<polygon style="opacity:0.2;" points="359.715,388.809 358.644,378.159 350.082,378.721 352.224,389.1 				"/>
			</g>
			<g>
				<path style="fill:#407BFF;" d="M390.194,303.159c0,0,3.433,18-8.317,18S354.499,325,354.499,325s4.5,4.274,5.5,58.744
					l-9.75,0.415c0,0-16.195-61.479-13-68.235c4.5-9.515,27.801-12.765,27.801-12.765H390.194z"/>
				<path style="opacity:0.2;" d="M390.194,303.159c0,0,3.433,18-8.317,18S354.499,325,354.499,325s4.5,4.274,5.5,58.744
					l-9.75,0.415c0,0-16.195-61.479-13-68.235c4.5-9.515,27.801-12.765,27.801-12.765H390.194z"/>
			</g>
			<g>
				<polygon style="fill:#407BFF;" points="348.182,381.242 361.438,380.909 361.015,386.409 349.893,386.885 				"/>
				<polygon style="opacity:0.5;fill:#FFFFFF;" points="348.182,381.242 361.438,380.909 361.015,386.409 349.893,386.885 				"/>
			</g>
			<g>
				<path style="fill:#407BFF;" d="M350.466,396.369c-0.875,0.105-1.799,0.054-2.134-0.288c-0.177-0.202-0.206-0.493-0.074-0.727
					c0.094-0.208,0.266-0.37,0.478-0.453c1.137-0.465,3.762,0.644,3.877,0.693c0.065,0.028,0.106,0.093,0.101,0.164
					c-0.005,0.07-0.052,0.13-0.118,0.153C351.901,396.126,351.188,396.279,350.466,396.369z M349.182,395.134
					c-0.108,0.011-0.214,0.038-0.314,0.08c-0.136,0.04-0.246,0.141-0.299,0.272c-0.099,0.223-0.043,0.318,0.011,0.369
					c0.382,0.419,2.159,0.217,3.45-0.102C351.127,395.368,350.161,395.159,349.182,395.134z"/>
				<path style="fill:#407BFF;" d="M352.57,395.912c-0.022,0.009-0.047,0.01-0.07,0.002c-0.887-0.272-2.762-1.596-2.707-2.406
					c-0.006-0.193,0.11-0.443,0.564-0.544c0.331-0.076,0.679-0.013,0.963,0.173c0.985,0.63,1.401,2.506,1.421,2.593
					c0.012,0.06-0.01,0.121-0.057,0.16C352.649,395.912,352.609,395.919,352.57,395.912z M350.506,393.267l-0.097,0.003
					c-0.297,0.061-0.302,0.185-0.309,0.229c0.014,0.483,1.267,1.544,2.202,1.955c-0.179-0.788-0.596-1.503-1.194-2.046
					C350.93,393.289,350.717,393.24,350.506,393.267L350.506,393.267z"/>
				<path style="fill:#407BFF;" d="M353.197,394.839l7.686-0.922c0.29-0.035,0.565,0.136,0.662,0.411l2.14,6.086
					c0.194,0.538-0.086,1.132-0.624,1.326c-0.069,0.025-0.141,0.042-0.213,0.052c-2.776,0.284-5.258,0.428-8.707,0.847
					c-4.07,0.49-2.979,0.853-7.757,1.495c-2.879,0.384-3.8-2.83-2.597-3.138c5.511-1.376,5.89-3.135,7.808-5.397
					C352.017,395.157,352.587,394.887,353.197,394.839z"/>
			</g>
		</g>
		<g>
			<g>
				<polygon style="fill:#FCC1BB;" points="330.302,383.169 336.677,398.648 342.885,397.409 338.615,380.846 				"/>
				<polygon style="opacity:0.2;" points="341.464,391.895 338.615,380.846 330.302,383.169 334.447,393.232 				"/>
			</g>
			<path style="fill:#407BFF;" d="M390.194,303.159c0,0,7.259,18.775-16.737,18c-9.19-0.297-48.991,9-48.991,9s7.178,3.75,16.178,54
				l-10.188,2.313c0,0-28.879-57.057-25.684-63.813c4.5-9.515,51.857-19.5,51.857-19.5H390.194z"/>
			<g>
				<polygon style="fill:#407BFF;" points="329.207,385.825 341.29,383.242 342.54,388.242 330.957,390.909 				"/>
				<polygon style="opacity:0.5;fill:#FFFFFF;" points="329.207,385.825 341.29,383.242 342.54,388.242 330.957,390.909 				"/>
			</g>
			<g>
				<path style="fill:#407BFF;" d="M332.84,399.356c-0.875,0.105-1.799,0.053-2.134-0.288c-0.177-0.202-0.206-0.493-0.074-0.727
					c0.095-0.208,0.266-0.37,0.478-0.453c1.137-0.464,3.762,0.644,3.877,0.693c0.065,0.028,0.106,0.093,0.102,0.164
					c-0.005,0.07-0.052,0.13-0.118,0.153C334.275,399.112,333.562,399.266,332.84,399.356z M331.556,398.12
					c-0.108,0.011-0.214,0.038-0.314,0.08c-0.136,0.04-0.246,0.141-0.299,0.273c-0.099,0.222-0.043,0.317,0.011,0.369
					c0.382,0.419,2.159,0.217,3.45-0.102C333.502,398.355,332.536,398.145,331.556,398.12z"/>
				<path style="fill:#407BFF;" d="M334.944,398.898c-0.022,0.009-0.047,0.01-0.07,0.002c-0.887-0.272-2.762-1.596-2.707-2.406
					c-0.006-0.193,0.11-0.442,0.564-0.544c0.331-0.076,0.679-0.013,0.963,0.173c0.985,0.629,1.401,2.506,1.421,2.593
					c0.012,0.06-0.01,0.121-0.057,0.16C335.024,398.898,334.983,398.906,334.944,398.898z M332.88,396.254l-0.097,0.003
					c-0.297,0.061-0.302,0.185-0.309,0.229c0.014,0.483,1.267,1.544,2.202,1.955c-0.179-0.788-0.596-1.503-1.194-2.046
					C333.305,396.276,333.091,396.226,332.88,396.254L332.88,396.254z"/>
				<path style="fill:#407BFF;" d="M335.571,397.825l7.686-0.923c0.29-0.035,0.565,0.136,0.662,0.411l2.14,6.086
					c0.194,0.539-0.086,1.132-0.624,1.326c-0.069,0.025-0.141,0.042-0.213,0.052c-2.776,0.284-5.258,0.428-8.707,0.847
					c-4.07,0.49-2.979,0.853-7.757,1.495c-2.879,0.384-3.8-2.83-2.597-3.138c5.511-1.376,5.89-3.135,7.808-5.397
					C334.391,398.144,334.962,397.874,335.571,397.825z"/>
			</g>
		</g>
	</g>
</g>
<g id="Chair">
	<g>
		<g>
			<path style="fill:#263238;" d="M412.158,388.133c-6.112-1.005-15.177-2.427-19.214-2.725c-0.886-0.065-1.999-0.114-3.222-0.147
				v-31.353h-7.677v31.353c-1.224,0.033-2.336,0.081-3.222,0.147c-4.037,0.297-13.102,1.72-19.214,2.725
				c-3.521,0.579-6.1,3.623-6.1,7.191v1.584h7.446l1-2.228c0,0,13.995-2.424,18.711-2.772c2.602-0.192,7.835-0.192,10.438,0
				c4.716,0.347,18.71,2.772,18.71,2.772l1,2.228h7.446v-1.584C418.259,391.756,415.68,388.712,412.158,388.133z"/>
			<path style="opacity:0.1;fill:#FFFFFF;" d="M412.158,388.133c-6.112-1.005-15.177-2.427-19.214-2.725
				c-0.886-0.065-1.999-0.114-3.222-0.147v-31.353h-7.677v31.353c-1.224,0.033-2.336,0.081-3.222,0.147
				c-4.037,0.297-13.102,1.72-19.214,2.725c-3.521,0.579-6.1,3.623-6.1,7.191v1.584h7.446l1-2.228c0,0,13.995-2.424,18.711-2.772
				c2.602-0.192,7.835-0.192,10.438,0c4.716,0.347,18.71,2.772,18.71,2.772l1,2.228h7.446v-1.584
				C418.259,391.756,415.68,388.712,412.158,388.133z"/>
			<path style="fill:#263238;" d="M388.481,358.409h-5.194c-1.969,0-3.566-1.596-3.566-3.566v-26.501h12.326v26.501
				C392.047,356.812,390.45,358.409,388.481,358.409z"/>
			<rect x="379.721" y="328.341" style="opacity:0.2;" width="12.326" height="7.317"/>
			<g>
				<circle style="fill:#263238;" cx="415.138" cy="402.159" r="5.25"/>
				<circle style="fill:#263238;" cx="356.629" cy="402.159" r="5.25"/>
			</g>
		</g>
		<g>
			<g>
				<g>
					<path style="fill:#407BFF;" d="M427.556,322.101c-7.354-1.875-14.91-2.907-22.488-3.097c-7.809-0.196-37.039-0.029-43.98-0.032
						c-8.449-0.003-16.899,1.038-25.097,3.129c-5.153,1.314-3.565,8.751,1.09,8.837c0.411,0.008,88.772-0.019,89.096-0.004
						C431.046,331.155,432.822,323.444,427.556,322.101z"/>
					<path style="opacity:0.3;" d="M427.556,322.101c-7.354-1.875-14.91-2.907-22.488-3.097c-7.809-0.196-37.039-0.029-43.98-0.032
						c-8.449-0.003-16.899,1.038-25.097,3.129c-5.153,1.314-3.565,8.751,1.09,8.837c0.411,0.008,88.772-0.019,89.096-0.004
						C431.046,331.155,432.822,323.444,427.556,322.101z"/>
				</g>
				<g>
					<path style="fill:#407BFF;" d="M338.384,330.779c14.843-3.785,30.565-3.785,45.408,0c5.615,1.432,8.01-7.246,2.393-8.679
						c-16.395-4.181-33.798-4.181-50.193,0C330.383,323.531,332.759,332.213,338.384,330.779L338.384,330.779z"/>
				</g>
				<g style="opacity:0.4;">
					<path style="fill:#FFFFFF;" d="M338.384,330.779c14.843-3.785,30.565-3.785,45.408,0c5.615,1.432,8.01-7.246,2.393-8.679
						c-16.395-4.181-33.798-4.181-50.193,0C330.383,323.531,332.759,332.213,338.384,330.779L338.384,330.779z"/>
				</g>
			</g>
			<path style="fill:#407BFF;" d="M403.923,257.701c-0.929-0.018-1.863,0.398-2.485,1.432c-11.905,19.797-16.134,43.595-12.027,66.3
				c0.257,1.423,1.232,2.086,2.313,2.16c1.802,0.123,33.882,0.009,35.046,0.007c1.75-0.004,3.672-1.49,3.261-3.762
				c-3.817-21.099,0.386-43.325,11.422-61.677c1.371-2.281-0.651-4.421-2.696-4.46C437.827,257.683,405.968,257.74,403.923,257.701z
				"/>
			<path style="opacity:0.2;" d="M403.923,257.701c-0.929-0.018-1.863,0.398-2.485,1.432c-11.905,19.797-16.134,43.595-12.027,66.3
				c0.257,1.423,1.232,2.086,2.313,2.16c1.802,0.123,33.882,0.009,35.046,0.007c1.75-0.004,3.672-1.49,3.261-3.762
				c-3.817-21.099,0.386-43.325,11.422-61.677c1.371-2.281-0.651-4.421-2.696-4.46C437.827,257.683,405.968,257.74,403.923,257.701z
				"/>
			<g>
				<path style="fill:#407BFF;" d="M395.197,323.838c-3.817-21.099,0.386-43.325,11.422-61.677c1.995-3.317-3.191-6.337-5.181-3.028
					c-11.905,19.797-16.134,43.595-12.027,66.3C390.098,329.227,395.881,327.619,395.197,323.838L395.197,323.838z"/>
			</g>
			<g style="opacity:0.4;">
				<path style="fill:#FFFFFF;" d="M395.197,323.838c-3.817-21.099,0.386-43.325,11.422-61.677c1.995-3.317-3.191-6.337-5.181-3.028
					c-11.905,19.797-16.134,43.595-12.027,66.3C390.098,329.227,395.881,327.619,395.197,323.838L395.197,323.838z"/>
			</g>
			<g>
				<g>
					<path style="fill:#263238;" d="M355.908,297.75c10.304,9.425,20.609,18.85,30.913,28.274c2.134,1.951,5.324-1.222,3.182-3.182
						c-10.304-9.425-20.609-18.85-30.913-28.275C356.956,292.616,353.765,295.79,355.908,297.75L355.908,297.75z"/>
				</g>
				<g style="opacity:0.5;">
					<path style="fill:#FFFFFF;" d="M355.908,297.75c10.304,9.425,20.609,18.85,30.913,28.274c2.134,1.951,5.324-1.222,3.182-3.182
						c-10.304-9.425-20.609-18.85-30.913-28.275C356.956,292.616,353.765,295.79,355.908,297.75L355.908,297.75z"/>
				</g>
				<path style="opacity:0.2;" d="M359.09,294.568c-2.133-1.951-5.324,1.222-3.182,3.182c1.971,1.803,3.943,3.606,5.914,5.409h6.661
					C365.351,300.295,362.22,297.431,359.09,294.568z"/>
			</g>
			<g>
				<g>
					<path style="fill:#407BFF;" d="M339.79,299.159c15.805,0,26.611,0,42.416,0c3.861,0,3.867-6,0-6c-15.805,0-26.611,0-42.416,0
						C335.93,293.159,335.923,299.159,339.79,299.159L339.79,299.159z"/>
				</g>
				<g style="opacity:0.3;">
					<path style="fill:#FFFFFF;" d="M339.79,299.159c15.805,0,26.611,0,42.416,0c3.861,0,3.867-6,0-6c-15.805,0-26.611,0-42.416,0
						C335.93,293.159,335.923,299.159,339.79,299.159L339.79,299.159z"/>
				</g>
			</g>
		</g>
	</g>
</g>
</svg>
